Coordinates
version=1
nRows=7
nColumns=33
inDegrees=yes

Units are S.I. units (second, meters, Newtons, ...)
Angles are in degrees.

endheader
time	ground_thorax_rot_x	ground_thorax_rot_y	ground_thorax_rot_z	ground_thorax_tx	ground_thorax_ty	ground_thorax_tz	clav_prot_r	clav_elev_r	scapula_abduction_r	scapula_elevation_r	scapula_upward_rot_r	scapula_winging_r	shoulder_elv_r	plane_of_elev_r	axial_rot_r	elbow_flexion_r	pro_sup_r	wrist_flex_r	wrist_dev_r	clav_prot_l	clav_elev_l	scapula_abduction_l	scapula_elevation_l	scapula_upward_rot_l	scapula_winging_l	shoulder_elv_l	plane_of_elev_l	axial_rot_l	elbow_flexion_l	pro_sup_l	wrist_flex_l	wrist_dev_l
      5.42000000	     39.28039477	      1.34683976	      8.82605243	   -162.83915350	    889.33580625	     -8.67870485	     13.60931786	     38.29609637	     38.84346877	     45.00000000	    -37.50220608	   2072.70666212	  -1731.18910296	     32.54426481	     66.69632914	   -342.30565761	     67.18328720	     17.12559244	      3.55743744	     11.85064119	    -45.00000000	    -39.23149598	     45.00000000	    -40.92487816	   -261.37810864	  -2971.84206105	    142.00508806	    145.31237352	    373.47479464	     49.62599061	      4.64734573	    -21.86992326
      5.43000000	     39.33342633	      1.11338534	      8.47872853	   -160.62924534	    891.18948794	     -8.75917508	     13.49932996	     38.48315033	     39.09988532	     45.00000000	    -36.64651601	   2072.51411281	  -1731.16548453	     32.53855743	     66.59320302	   -342.16127096	     68.60064005	     17.04491228	      3.47568364	     11.79433688	    -45.00000000	    -39.56972101	     45.00000000	    -39.90561480	   -261.37322299	  -2971.70682716	    141.91760023	    145.75587221	    373.51257407	     49.66462357	      4.58548316	    -21.86213835
      5.44000000	     39.37057781	      0.83006066	      8.14958224	   -158.32087261	    892.90672568	     -8.84268884	     12.97470151	     38.48914439	     39.28317842	     45.00000000	    -35.80959381	   2072.53117827	  -1730.97669793	     32.50495120	     66.35030054	   -341.96488264	     69.80146721	     17.09946459	      3.45877696	     11.89388862	    -45.00000000	    -39.76373645	     45.00000000	    -39.02037917	   -261.25860895	  -2971.51563529	    141.62639836	    146.21419418	    373.49565593	     49.60850057	      4.45241613	    -21.71867363
      5.45000000	     39.24945309	      1.26396433	      8.41402056	   -155.91583951	    894.47229415	     -8.92574287	     12.00142752	     38.44541702	     38.93305230	     45.00000000	    -34.05207056	   2073.26083366	  -1730.50382252	     31.17232918	     65.74850781	   -341.59104400	     70.71689137	     17.02976758	      3.29933461	     11.71855635	    -45.00000000	    -40.02402820	     45.00000000	    -38.66719159	   -261.28576569	  -2971.12320428	    141.65505917	    146.56136873	    373.65878430	     49.48869465	      4.38832288	    -21.72406098
      5.46000000	     39.41618222	      0.50274214	      7.60795354	   -153.41351444	    895.87150720	     -9.00510908	     13.68658323	     38.96196403	     39.92227382	     45.00000000	    -34.47321378	   2072.10890403	  -1730.97988313	     32.48840924	     65.81014406	   -341.74230213	     72.10121221	     16.74502385	      3.21562265	     11.40853739	    -45.00000000	    -40.45971989	     45.00000000	    -36.79702946	   -261.41400680	  -2971.25744902	    141.65784119	    147.16536111	    373.53443199	     49.28832690	      4.59955905	    -21.97021145
      5.47000000	     39.44124246	      0.20812724	      7.28183446	   -150.82195477	    897.08484605	     -9.07767337	     13.08481090	     39.03538179	     40.11500594	     45.00000000	    -33.52331600	   2071.97291423	  -1730.94608011	     32.57800577	     65.66468446	   -341.63619869	     73.17262754	     16.77807308	      3.22094604	     11.52572648	    -45.00000000	    -40.73721446	     45.00000000	    -35.72102118	   -261.34421952	  -2971.18160621	    141.45828653	    147.51036168	    373.50078686	     48.94536449	      4.47460331	    -21.80342683
      5.48000000	     39.45574061	      0.06631919	      6.99014768	   -148.13933894	    898.09774356	     -9.14139208	     13.22059706	     39.24006409	     40.35752014	     45.00000000	    -32.77343788	   2071.79257754	  -1730.95018863	     32.54591078	     65.51704950	   -341.54024133	     74.18252728	     16.63934156	      3.14148079	     11.31040165	    -45.00000000	    -41.10174279	     45.00000000	    -34.62122112	   -261.47503948	  -2971.06529901	    141.40609906	    147.93348112	    373.49085696	     48.50700996	      4.54180248	    -21.87079322
